<svg xmlns="http://www.w3.org/2000/svg" xmlns:xlink="http://www.w3.org/1999/xlink" width="500" zoomAndPan="magnify" viewBox="0 0 375 374.999991" height="500" preserveAspectRatio="xMidYMid meet" version="1.0"><defs><g/><clipPath id="ce49345957"><path d="M 202.371094 153.519531 L 325.371094 153.519531 L 325.371094 224.769531 L 202.371094 224.769531 Z M 202.371094 153.519531 " clip-rule="nonzero"/></clipPath></defs><rect x="-37.5" width="450" fill="#ffffff" y="-37.499999" height="449.999989" fill-opacity="1"/><rect x="-37.5" width="450" fill="#ffffff" y="-37.499999" height="449.999989" fill-opacity="1"/><g clip-path="url(#ce49345957)"><path fill="#ff1616" d="M 325.347656 153.796875 C 325.203125 153.625 324.988281 153.523438 324.761719 153.523438 L 214.738281 153.523438 C 214.359375 153.523438 214.039062 153.796875 213.976562 154.167969 L 202.394531 223.914062 C 202.359375 224.136719 202.421875 224.367188 202.566406 224.539062 C 202.714844 224.710938 202.929688 224.8125 203.15625 224.8125 L 313.179688 224.8125 C 313.558594 224.8125 313.878906 224.539062 313.941406 224.167969 L 325.523438 154.421875 C 325.558594 154.199219 325.496094 153.96875 325.347656 153.796875 Z M 325.347656 153.796875 " fill-opacity="1" fill-rule="nonzero"/></g><g fill="#000000" fill-opacity="1"><g transform="translate(110.113272, 196.136222)"><g><path d="M 6.890625 -42.953125 L 20.09375 -42.953125 C 22.195312 -42.953125 23.710938 -42.472656 24.640625 -41.515625 C 25.578125 -40.566406 26.046875 -39.234375 26.046875 -37.515625 C 26.046875 -35.804688 25.742188 -33.617188 25.140625 -30.953125 C 24.578125 -28.515625 23.820312 -26.613281 22.875 -25.25 C 21.925781 -23.882812 20.597656 -22.9375 18.890625 -22.40625 C 20.128906 -22.132812 20.921875 -21.484375 21.265625 -20.453125 C 21.617188 -19.421875 21.597656 -18.019531 21.203125 -16.25 L 17.34375 0 L 8.953125 0 L 12.796875 -16.796875 C 13.097656 -17.992188 13.046875 -18.757812 12.640625 -19.09375 C 12.242188 -19.425781 11.429688 -19.59375 10.203125 -19.59375 L 5.703125 0 L -3 0 Z M 14.046875 -27.046875 C 15.242188 -27.046875 16.144531 -28.347656 16.75 -30.953125 C 17.007812 -32.085938 17.148438 -32.9375 17.171875 -33.5 C 17.191406 -34.0625 17.09375 -34.453125 16.875 -34.671875 C 16.65625 -34.890625 16.296875 -35 15.796875 -35 L 13.796875 -35 L 12 -27.046875 Z M 14.046875 -27.046875 "/></g></g></g><g fill="#000000" fill-opacity="1"><g transform="translate(135.209569, 196.136222)"><g><path d="M -3 0 L 6.890625 -42.953125 L 24.09375 -42.953125 L 22.203125 -34.65625 L 13.75 -34.65625 L 11.796875 -26.296875 L 19.890625 -26.296875 L 18.046875 -18.203125 L 9.953125 -18.203125 L 7.640625 -8.34375 L 16.640625 -8.34375 L 14.75 0 Z M -3 0 "/></g></g></g><g fill="#000000" fill-opacity="1"><g transform="translate(157.056373, 196.136222)"><g><path d="M -3 0 L 6.890625 -42.953125 L 15.75 -42.953125 L 14.953125 -22.40625 L 19.703125 -42.953125 L 28 -42.953125 L 18.09375 0 L 9.703125 0 L 10.34375 -21.5 L 5.390625 0 Z M -3 0 "/></g></g></g><g fill="#000000" fill-opacity="1"><g transform="translate(183.202516, 196.136222)"><g><path d="M 0.65625 0 L 8.65625 -34.703125 L 3.546875 -34.703125 L 5.453125 -42.953125 L 24.25 -42.953125 L 22.34375 -34.703125 L 17.25 -34.703125 L 9.25 0 Z M 0.65625 0 "/></g></g></g><g fill="#a6a6a6" fill-opacity="1"><g transform="translate(56.843989, 225.570043)"><g><path d="M 3.171875 -6.5 L 2.765625 -4.5 L 6.5 -4.5 L 6.265625 -3.328125 L 2.53125 -3.328125 L 2.109375 -1.203125 L 6.46875 -1.203125 L 6.21875 0 L 0.453125 0 L 1.984375 -7.703125 L 7.609375 -7.703125 L 7.375 -6.5 Z M 3.171875 -6.5 "/></g></g></g><g fill="#a6a6a6" fill-opacity="1"><g transform="translate(68.608816, 225.570043)"><g><path d="M 2.96875 0.109375 C 2.375 0.109375 1.804688 0.0234375 1.265625 -0.140625 C 0.722656 -0.304688 0.296875 -0.523438 -0.015625 -0.796875 L 0.59375 -1.90625 C 0.914062 -1.65625 1.296875 -1.453125 1.734375 -1.296875 C 2.179688 -1.148438 2.640625 -1.078125 3.109375 -1.078125 C 3.671875 -1.078125 4.117188 -1.171875 4.453125 -1.359375 C 4.785156 -1.554688 4.953125 -1.828125 4.953125 -2.171875 C 4.953125 -2.359375 4.882812 -2.515625 4.75 -2.640625 C 4.613281 -2.773438 4.441406 -2.878906 4.234375 -2.953125 C 4.035156 -3.035156 3.757812 -3.128906 3.40625 -3.234375 C 2.90625 -3.378906 2.5 -3.519531 2.1875 -3.65625 C 1.882812 -3.789062 1.617188 -3.992188 1.390625 -4.265625 C 1.171875 -4.535156 1.0625 -4.890625 1.0625 -5.328125 C 1.0625 -5.828125 1.203125 -6.257812 1.484375 -6.625 C 1.765625 -7 2.160156 -7.289062 2.671875 -7.5 C 3.179688 -7.707031 3.765625 -7.8125 4.421875 -7.8125 C 4.921875 -7.8125 5.394531 -7.753906 5.84375 -7.640625 C 6.289062 -7.523438 6.675781 -7.363281 7 -7.15625 L 6.4375 -6.03125 C 6.144531 -6.21875 5.816406 -6.363281 5.453125 -6.46875 C 5.097656 -6.570312 4.726562 -6.625 4.34375 -6.625 C 3.769531 -6.625 3.316406 -6.519531 2.984375 -6.3125 C 2.648438 -6.101562 2.484375 -5.828125 2.484375 -5.484375 C 2.484375 -5.285156 2.550781 -5.117188 2.6875 -4.984375 C 2.832031 -4.847656 3.003906 -4.738281 3.203125 -4.65625 C 3.398438 -4.582031 3.6875 -4.488281 4.0625 -4.375 C 4.550781 -4.238281 4.945312 -4.101562 5.25 -3.96875 C 5.5625 -3.832031 5.828125 -3.632812 6.046875 -3.375 C 6.265625 -3.125 6.375 -2.796875 6.375 -2.390625 C 6.375 -1.878906 6.226562 -1.4375 5.9375 -1.0625 C 5.65625 -0.6875 5.253906 -0.394531 4.734375 -0.1875 C 4.222656 0.0078125 3.632812 0.109375 2.96875 0.109375 Z M 2.96875 0.109375 "/></g></g></g><g fill="#a6a6a6" fill-opacity="1"><g transform="translate(79.922964, 225.570043)"><g><path d="M 3.3125 -6.484375 L 0.765625 -6.484375 L 1 -7.703125 L 7.53125 -7.703125 L 7.28125 -6.484375 L 4.734375 -6.484375 L 3.4375 0 L 2.015625 0 Z M 3.3125 -6.484375 "/></g></g></g><g fill="#a6a6a6" fill-opacity="1"><g transform="translate(90.940319, 225.570043)"><g><path d="M 0.875 0.078125 C 0.632812 0.078125 0.429688 0 0.265625 -0.15625 C 0.0976562 -0.320312 0.015625 -0.53125 0.015625 -0.78125 C 0.015625 -1.0625 0.109375 -1.289062 0.296875 -1.46875 C 0.484375 -1.65625 0.710938 -1.75 0.984375 -1.75 C 1.222656 -1.75 1.421875 -1.664062 1.578125 -1.5 C 1.742188 -1.34375 1.828125 -1.140625 1.828125 -0.890625 C 1.828125 -0.609375 1.734375 -0.375 1.546875 -0.1875 C 1.359375 -0.0078125 1.132812 0.078125 0.875 0.078125 Z M 0.875 0.078125 "/></g></g></g><g fill="#a6a6a6" fill-opacity="1"><g transform="translate(98.022466, 225.570043)"><g><path d="M 2.171875 -1.203125 L 5.71875 -1.203125 L 5.46875 0 L -0.203125 0 L -0.015625 -0.953125 L 3.625 -3.828125 C 4.09375 -4.203125 4.414062 -4.519531 4.59375 -4.78125 C 4.769531 -5.050781 4.859375 -5.328125 4.859375 -5.609375 C 4.859375 -5.921875 4.742188 -6.160156 4.515625 -6.328125 C 4.296875 -6.503906 3.972656 -6.59375 3.546875 -6.59375 C 3.203125 -6.59375 2.867188 -6.519531 2.546875 -6.375 C 2.234375 -6.226562 1.957031 -6.023438 1.71875 -5.765625 L 0.75 -6.53125 C 1.070312 -6.914062 1.492188 -7.222656 2.015625 -7.453125 C 2.546875 -7.691406 3.117188 -7.8125 3.734375 -7.8125 C 4.265625 -7.8125 4.722656 -7.722656 5.109375 -7.546875 C 5.503906 -7.378906 5.800781 -7.144531 6 -6.84375 C 6.207031 -6.539062 6.3125 -6.195312 6.3125 -5.8125 C 6.3125 -5.34375 6.179688 -4.894531 5.921875 -4.46875 C 5.671875 -4.050781 5.222656 -3.59375 4.578125 -3.09375 Z M 2.171875 -1.203125 "/></g></g></g><g fill="#a6a6a6" fill-opacity="1"><g transform="translate(108.819983, 225.570043)"><g><path d="M 3.25 0.109375 C 2.414062 0.109375 1.757812 -0.140625 1.28125 -0.640625 C 0.800781 -1.148438 0.5625 -1.859375 0.5625 -2.765625 C 0.5625 -3.671875 0.722656 -4.507812 1.046875 -5.28125 C 1.378906 -6.0625 1.84375 -6.675781 2.4375 -7.125 C 3.039062 -7.582031 3.734375 -7.8125 4.515625 -7.8125 C 5.347656 -7.8125 6 -7.554688 6.46875 -7.046875 C 6.945312 -6.546875 7.1875 -5.84375 7.1875 -4.9375 C 7.1875 -4.03125 7.019531 -3.1875 6.6875 -2.40625 C 6.363281 -1.632812 5.898438 -1.019531 5.296875 -0.5625 C 4.703125 -0.113281 4.019531 0.109375 3.25 0.109375 Z M 3.375 -1.140625 C 3.863281 -1.140625 4.285156 -1.332031 4.640625 -1.71875 C 5.003906 -2.101562 5.28125 -2.585938 5.46875 -3.171875 C 5.65625 -3.765625 5.75 -4.34375 5.75 -4.90625 C 5.75 -5.445312 5.628906 -5.859375 5.390625 -6.140625 C 5.148438 -6.421875 4.816406 -6.5625 4.390625 -6.5625 C 3.898438 -6.5625 3.472656 -6.367188 3.109375 -5.984375 C 2.742188 -5.597656 2.460938 -5.109375 2.265625 -4.515625 C 2.078125 -3.929688 1.984375 -3.359375 1.984375 -2.796875 C 1.984375 -2.242188 2.101562 -1.828125 2.34375 -1.546875 C 2.59375 -1.273438 2.9375 -1.140625 3.375 -1.140625 Z M 3.375 -1.140625 "/></g></g></g><g fill="#a6a6a6" fill-opacity="1"><g transform="translate(120.606808, 225.570043)"><g><path d="M 2.171875 -1.203125 L 5.71875 -1.203125 L 5.46875 0 L -0.203125 0 L -0.015625 -0.953125 L 3.625 -3.828125 C 4.09375 -4.203125 4.414062 -4.519531 4.59375 -4.78125 C 4.769531 -5.050781 4.859375 -5.328125 4.859375 -5.609375 C 4.859375 -5.921875 4.742188 -6.160156 4.515625 -6.328125 C 4.296875 -6.503906 3.972656 -6.59375 3.546875 -6.59375 C 3.203125 -6.59375 2.867188 -6.519531 2.546875 -6.375 C 2.234375 -6.226562 1.957031 -6.023438 1.71875 -5.765625 L 0.75 -6.53125 C 1.070312 -6.914062 1.492188 -7.222656 2.015625 -7.453125 C 2.546875 -7.691406 3.117188 -7.8125 3.734375 -7.8125 C 4.265625 -7.8125 4.722656 -7.722656 5.109375 -7.546875 C 5.503906 -7.378906 5.800781 -7.144531 6 -6.84375 C 6.207031 -6.539062 6.3125 -6.195312 6.3125 -5.8125 C 6.3125 -5.34375 6.179688 -4.894531 5.921875 -4.46875 C 5.671875 -4.050781 5.222656 -3.59375 4.578125 -3.09375 Z M 2.171875 -1.203125 "/></g></g></g><g fill="#a6a6a6" fill-opacity="1"><g transform="translate(131.404325, 225.570043)"><g><path d="M 7.109375 -1.75 L 5.75 -1.75 L 5.40625 0 L 4 0 L 4.359375 -1.75 L 0.15625 -1.75 L 0.34375 -2.734375 L 5.0625 -7.703125 L 6.640625 -7.703125 L 2.1875 -2.953125 L 4.65625 -2.953125 L 4.96875 -4.515625 L 6.296875 -4.515625 L 6 -2.953125 L 7.359375 -2.953125 Z M 7.109375 -1.75 "/></g></g></g><g fill="#ffffff" fill-opacity="1"><g transform="translate(222.797685, 206.17317)"><g><path d="M -3.3125 0 L 7.921875 -34.359375 L 19.5625 -34.359375 L 14.921875 0 L 8.40625 0 L 9.203125 -5.5625 L 5.046875 -5.5625 L 3.359375 0 Z M 6.84375 -11.046875 L 9.96875 -11.046875 L 12.453125 -28.515625 L 12.125 -28.515625 Z M 6.84375 -11.046875 "/></g></g></g><g fill="#ffffff" fill-opacity="1"><g transform="translate(242.995762, 206.17317)"><g><path d="M 5.53125 -34.359375 L 14.609375 -34.359375 C 17.359375 -34.359375 19.109375 -33.472656 19.859375 -31.703125 C 20.617188 -29.929688 20.613281 -27.335938 19.84375 -23.921875 C 19.039062 -20.503906 17.921875 -17.925781 16.484375 -16.1875 C 15.046875 -14.457031 12.976562 -13.59375 10.28125 -13.59375 L 7.484375 -13.59375 L 4.359375 0 L -2.390625 0 Z M 9.328125 -19.796875 C 10.148438 -19.796875 10.785156 -19.945312 11.234375 -20.25 C 11.691406 -20.5625 12.046875 -21.003906 12.296875 -21.578125 C 12.554688 -22.148438 12.820312 -22.972656 13.09375 -24.046875 C 13.40625 -25.484375 13.472656 -26.519531 13.296875 -27.15625 C 13.128906 -27.800781 12.566406 -28.125 11.609375 -28.125 L 10.84375 -28.125 L 8.921875 -19.796875 Z M 9.328125 -19.796875 "/></g></g></g><g fill="#ffffff" fill-opacity="1"><g transform="translate(262.673888, 206.17317)"><g><path d="M 5.53125 -34.359375 L 14.609375 -34.359375 C 17.359375 -34.359375 19.109375 -33.472656 19.859375 -31.703125 C 20.617188 -29.929688 20.613281 -27.335938 19.84375 -23.921875 C 19.039062 -20.503906 17.921875 -17.925781 16.484375 -16.1875 C 15.046875 -14.457031 12.976562 -13.59375 10.28125 -13.59375 L 7.484375 -13.59375 L 4.359375 0 L -2.390625 0 Z M 9.328125 -19.796875 C 10.148438 -19.796875 10.785156 -19.945312 11.234375 -20.25 C 11.691406 -20.5625 12.046875 -21.003906 12.296875 -21.578125 C 12.554688 -22.148438 12.820312 -22.972656 13.09375 -24.046875 C 13.40625 -25.484375 13.472656 -26.519531 13.296875 -27.15625 C 13.128906 -27.800781 12.566406 -28.125 11.609375 -28.125 L 10.84375 -28.125 L 8.921875 -19.796875 Z M 9.328125 -19.796875 "/></g></g></g><g fill="#ffffff" fill-opacity="1"><g transform="translate(282.352014, 206.17317)"><g><path d="M 5.6875 0.3125 C 2.5625 0.3125 0.488281 -0.457031 -0.53125 -2 C -1.5625 -3.539062 -1.675781 -6.035156 -0.875 -9.484375 L -0.109375 -12.84375 L 6.640625 -12.84375 L 5.640625 -8.5625 C 5.242188 -6.851562 5.59375 -6 6.6875 -6 C 7.300781 -6 7.773438 -6.175781 8.109375 -6.53125 C 8.441406 -6.894531 8.703125 -7.503906 8.890625 -8.359375 C 9.148438 -9.484375 9.226562 -10.410156 9.125 -11.140625 C 9.019531 -11.867188 8.820312 -12.476562 8.53125 -12.96875 C 8.238281 -13.46875 7.675781 -14.238281 6.84375 -15.28125 L 4.5625 -18.234375 C 2.800781 -20.472656 2.226562 -22.957031 2.84375 -25.6875 C 3.507812 -28.613281 4.695312 -30.84375 6.40625 -32.375 C 8.113281 -33.914062 10.257812 -34.6875 12.84375 -34.6875 C 15.9375 -34.6875 17.976562 -33.863281 18.96875 -32.21875 C 19.957031 -30.582031 20.035156 -28.015625 19.203125 -24.515625 L 12.203125 -24.515625 L 12.734375 -26.875 C 12.835938 -27.332031 12.796875 -27.691406 12.609375 -27.953125 C 12.421875 -28.222656 12.097656 -28.359375 11.640625 -28.359375 C 11.109375 -28.359375 10.671875 -28.210938 10.328125 -27.921875 C 9.984375 -27.628906 9.753906 -27.226562 9.640625 -26.71875 C 9.378906 -25.601562 9.753906 -24.441406 10.765625 -23.234375 L 13.890625 -19.40625 C 14.609375 -18.5 15.179688 -17.632812 15.609375 -16.8125 C 16.035156 -16 16.304688 -15.039062 16.421875 -13.9375 C 16.546875 -12.832031 16.4375 -11.519531 16.09375 -10 C 15.289062 -6.613281 14.066406 -4.046875 12.421875 -2.296875 C 10.785156 -0.554688 8.539062 0.3125 5.6875 0.3125 Z M 5.6875 0.3125 "/></g></g></g><path stroke-linecap="round" transform="matrix(0.75, 0, 0, 0.75, 59.093989, 207.129992)" fill="none" stroke-linejoin="miter" d="M 0.499682 0.498552 L 179.51011 0.498552 " stroke="#000000" stroke-width="1" stroke-opacity="1" stroke-miterlimit="4"/></svg>